PathFileType	4	(X/Y/Z)	G:\Shared drives\HPL_Drive\Pi-Spi Study\20230118_AMCsubject1\Trimmed_left_horiz_abd01_rotated.trc
DataRate	CameraRate	NumFrames	NumMarkers	Units	OrigDataRate	OrigDataStartFrame	OrigNumFrames
200.00	200.00	       11	35	mm	200.00	151	       200
Frame#	Time	C7			Sternum			r_AMC1			r_AMC2			r_AMC3			l_AMC1			l_AMC2			l_AMC3			PX			T8			r_humerous			r_elbow_medial			r_elbow_lateral			r_forearm			r_wrist_radius			r_wrist_ulna			r_MCP_1			r_MCP_3			l_humerous			l_elbow_medial			l_elbow_lateral			l_forearm			l_wrist_radius			l_wrist_ulna			l_MCP_1			l_MCP_3			r_ASIS			r_PSIS			l_ASIS			l_PSIS			r_IC			l_IC			TS			AI			AA			
		X1	Y1	Z1	X2	Y2	Z2	X3	Y3	Z3	X4	Y4	Z4	X5	Y5	Z5	X6	Y6	Z6	X7	Y7	Z7	X8	Y8	Z8	X9	Y9	Z9	X10	Y10	Z10	X11	Y11	Z11	X12	Y12	Z12	X13	Y13	Z13	X14	Y14	Z14	X15	Y15	Z15	X16	Y16	Z16	X17	Y17	Z17	X18	Y18	Z18	X19	Y19	Z19	X20	Y20	Z20	X21	Y21	Z21	X22	Y22	Z22	X23	Y23	Z23	X24	Y24	Z24	X25	Y25	Z25	X26	Y26	Z26	X27	Y27	Z27	X28	Y28	Z28	X29	Y29	Z29	X30	Y30	Z30	X31	Y31	Z31	X32	Y32	Z32	X33	Y33	Z33	X34	Y34	Z34	X35	Y35	Z35	

151	0.75	234.2653	1374.18	-198.7447	370.7843	1323.2456	-218.2123	240.7247	1327.9126	-60.0749	275.5687	1333.2938	-24.8341	294.7096	1366.5496	-48.5339	194.1779	1355.1455	-313.4734	215.5653	1374.7008	-355.7566	246.295	1401.4233	-320.3123	429.3527	1126.8752	-235.7876	194.7004	1198.4714	-203.1543	347.0323	1150.3995	-4.6105	273.9576	1008.6743	-19.8867	294.8096	1022.3933	42.8738	352.7907	868.3987	66.1904	400.7394	805.1252	44.7159	355.7444	799.4456	68.8822	425.8894	723.9085	58.5078	378.9347	720.0944	78.1649	265.274	1347.4775	-508.1661	220.6812	1258.5662	-616.0383	189.1187	1299.8911	-623.1013	161.9392	1313.0708	-778.7849	166.8697	1325.1509	-855.4276	160.6004	1282.4777	-854.6746	148.9889	1326.2279	-931.8248	150.6374	1282.5581	-933.0026	389.8472	903.8943	-98.3582	199.0501	932.7532	-168.6895	375.4866	890.2337	-354.4949	193.7336	927.0385	-270.5078	314.0227	967.7121	-62.4647	290.0409	942.6952	-385.877	138.1775	1298.7693	-246.9089	151.1978	1201.8719	-273.0953	142.4881	1340.3002	-379.3304
152	0.755	234.2888	1374.1802	-198.7079	370.8194	1323.248	-218.1774	240.733	1327.9199	-60.0371	275.5536	1333.2831	-24.7717	294.6974	1366.5907	-48.4537	194.1972	1355.1679	-313.4073	215.6144	1374.691	-355.7344	246.3509	1401.4207	-320.2526	429.3897	1126.8584	-235.6927	194.741	1198.479	-203.1429	347.006	1150.3906	-4.5341	273.9715	1008.6518	-19.8342	294.7787	1022.4042	42.9551	352.7855	868.404	66.2512	400.7508	805.1372	44.7947	355.7752	799.4477	68.9645	425.9011	723.9141	58.611	378.917	720.0896	78.2601	265.286	1347.5216	-508.113	220.7741	1258.5654	-616.0115	189.1802	1299.8782	-623.0654	162.0358	1313.0184	-778.7481	166.981	1325.1063	-855.3983	160.716	1282.441	-854.5837	149.1	1326.1838	-931.8134	150.7227	1282.51	-932.9862	389.8577	903.9042	-98.3605	199.0427	932.7565	-168.666	375.4934	890.2626	-354.4835	193.738	927.0319	-270.4862	314.0933	967.6951	-62.4393	290.0434	942.7309	-385.8859	138.2308	1298.7783	-246.828	151.1968	1201.901	-273.0518	142.4713	1340.2988	-379.2816
153	0.76	234.3112	1374.1742	-198.671	370.8313	1323.2693	-218.1239	240.7691	1327.8937	-59.9962	275.5659	1333.2883	-24.7369	294.7628	1366.4996	-48.4259	194.2202	1355.158	-313.3744	215.6675	1374.7159	-355.6937	246.3713	1401.4533	-320.2039	429.3975	1126.907	-235.6749	194.7562	1198.4744	-203.1029	346.9979	1150.4518	-4.4838	273.9947	1008.6722	-19.7763	294.7816	1022.3757	43.0104	352.8113	868.4679	66.3462	400.7565	805.1874	44.8609	355.8077	799.4348	69.0201	425.9167	723.9186	58.7285	379.0154	719.9753	78.3501	265.3812	1347.5389	-508.0493	220.849	1258.5544	-615.9664	189.2566	1299.8953	-623.0054	162.1206	1312.9936	-778.7183	167.0748	1325.0796	-855.3716	160.8288	1282.4059	-854.5297	149.1998	1326.1128	-931.7808	150.8171	1282.4733	-932.9628	389.9206	903.9041	-98.3581	199.0627	932.762	-168.6482	375.4708	890.2437	-354.4828	193.753	927.0389	-270.4663	314.0609	967.7001	-62.4195	290.0361	942.7089	-385.8407	138.1428	1298.5337	-247.2252	151.2219	1201.8932	-273.0473	142.5043	1340.3507	-379.2379
154	0.765	234.3348	1374.1722	-198.6341	370.9011	1323.2888	-218.0656	240.76	1327.9083	-59.9469	275.5802	1333.3259	-24.7075	294.7064	1366.5374	-48.3388	194.2836	1355.1677	-313.373	215.6965	1374.7332	-355.663	246.3938	1401.4796	-320.1839	429.4199	1126.8933	-235.6336	194.7888	1198.4817	-203.07	347.4433	1150.6714	-4.0104	273.9388	1008.675	-19.6604	294.8012	1022.3904	43.0502	352.8013	868.467	66.3881	400.8144	805.1756	44.9274	355.834	799.4178	69.1258	425.9079	723.9768	58.8389	378.9738	720.0796	78.4435	265.541	1347.4647	-508.0491	220.9333	1258.5378	-615.9301	189.3519	1299.8904	-623.0037	162.1878	1312.9502	-778.6495	167.1922	1325.0376	-855.3326	160.9497	1282.3392	-854.4928	149.2952	1326.0664	-931.7507	150.9196	1282.429	-932.944	389.8927	903.8734	-98.2877	199.0763	932.7581	-168.6317	375.4841	890.2643	-354.4718	193.7445	927.0513	-270.445	314.188	967.6623	-62.418	290.0233	942.7662	-385.7944	138.2783	1298.8396	-246.7671	151.2167	1201.9353	-273.0008	142.5225	1340.3627	-379.1839
155	0.77	234.3649	1374.177	-198.5831	370.9142	1323.2994	-218.0094	240.7751	1327.8811	-59.8909	275.6293	1333.2347	-24.6915	294.8484	1366.5371	-48.3757	194.306	1355.2041	-313.337	215.7156	1374.7234	-355.6301	246.4111	1401.4784	-320.1472	429.4757	1126.9259	-235.6257	194.8062	1198.4716	-203.0487	347.4511	1150.6719	-3.9584	273.9826	1008.6583	-19.6584	294.8071	1022.3982	43.0922	352.8563	868.4388	66.4486	400.846	805.1497	45.0014	355.8261	799.4544	69.1671	426.0049	723.9385	58.893	378.9413	720.0753	78.4723	265.5613	1347.5135	-507.9719	221.0326	1258.5188	-615.8975	189.4111	1299.8675	-622.9615	162.2882	1312.9114	-778.6595	167.2727	1324.9935	-855.3046	161.0163	1282.282	-854.436	149.3773	1326.0129	-931.7096	151.0404	1282.3575	-932.9092	389.9375	903.9014	-98.3301	199.0784	932.7639	-168.5889	375.4527	890.2682	-354.4784	193.7462	927.043	-270.4476	314.1825	967.6496	-62.4035	290.0566	942.7024	-385.7767	138.5763	1298.8853	-246.9921	151.2152	1201.9539	-272.9408	142.5367	1340.3765	-379.1487
156	0.775	234.4014	1374.1577	-198.5646	370.9282	1323.304	-217.9518	240.808	1327.8756	-59.843	275.6315	1333.2582	-24.6096	294.8947	1366.5062	-48.3298	194.3173	1355.2196	-313.3107	215.7635	1374.7213	-355.6094	246.4215	1401.5064	-320.1185	429.5243	1126.9481	-235.5844	194.8281	1198.4935	-203.0467	346.9954	1150.3972	-4.3165	273.9675	1008.6642	-19.5707	294.819	1022.3844	43.1552	352.9214	868.4491	66.522	400.8845	805.1471	45.0622	355.8639	799.4766	69.2669	426.0446	723.9445	58.9521	379.0825	719.9938	78.5627	265.5755	1347.555	-507.9117	221.1492	1258.4993	-615.8321	189.4967	1299.8458	-622.9236	162.3547	1312.8738	-778.616	167.3955	1324.9491	-855.2823	161.1359	1282.2221	-854.3966	149.4559	1325.9558	-931.6635	151.085	1282.3293	-932.8422	389.8946	903.8469	-98.2824	199.0848	932.7694	-168.5649	375.4513	890.2921	-354.4737	193.7597	927.0519	-270.403	314.1658	967.663	-62.3736	289.9997	942.7487	-385.7482	138.5928	1298.898	-246.9638	151.2317	1201.9514	-272.9432	142.5771	1340.375	-379.0931
157	0.78	234.4159	1374.1753	-198.5211	370.9585	1323.3203	-217.9191	240.8124	1327.8739	-59.8162	275.6177	1333.2535	-24.5417	294.82	1366.4658	-48.2652	194.3621	1355.2131	-313.2849	215.8075	1374.7345	-355.6021	246.4662	1401.5424	-320.0882	429.5197	1126.9307	-235.5222	194.8651	1198.4695	-203.0186	347.454	1150.6501	-3.8503	273.9271	1008.6472	-19.4999	294.8315	1022.3953	43.2012	352.8708	868.4487	66.5834	400.9366	805.1296	45.1114	355.8281	799.4957	69.3242	426.0501	723.9528	59.0441	379.1091	720.0123	78.6098	265.6735	1347.5376	-507.9216	221.2446	1258.4878	-615.8004	189.6264	1299.8166	-622.875	162.3974	1312.8104	-778.5686	167.4655	1324.9001	-855.2126	161.2557	1282.1728	-854.3397	149.5351	1325.9108	-931.6367	151.186	1282.2653	-932.8366	389.9751	903.8324	-98.3057	199.0877	932.756	-168.5427	375.4585	890.2915	-354.4358	193.7675	927.0579	-270.3943	314.1973	967.5947	-62.3568	290.0471	942.7455	-385.755	138.3644	1298.8702	-246.6892	151.2432	1201.973	-272.9143	142.6195	1340.3831	-379.0892
158	0.785	234.4599	1374.1779	-198.4863	370.9736	1323.3458	-217.8674	240.8411	1327.87	-59.783	275.6258	1333.2334	-24.4949	294.8489	1366.4492	-48.2246	194.3861	1355.2075	-313.2564	215.8739	1374.733	-355.5944	246.4869	1401.551	-320.0699	429.563	1126.9564	-235.4875	194.8851	1198.4973	-203.0011	347.4637	1150.6366	-3.7936	273.9824	1008.6655	-19.4713	295.1583	1022.3115	43.0722	352.8919	868.4981	66.655	400.9048	805.1241	45.2074	355.9031	799.4794	69.4059	426.0791	723.9213	59.123	379.102	719.9732	78.6816	265.8305	1347.4248	-507.9101	221.3242	1258.4762	-615.7537	189.6916	1299.7882	-622.8658	162.4789	1312.7696	-778.5565	167.5402	1324.8547	-855.185	161.3465	1282.0974	-854.3138	149.6017	1325.86	-931.6085	151.2778	1282.1831	-932.8062	390.0002	903.8481	-98.3061	199.0913	932.7613	-168.5296	375.4474	890.2879	-354.439	193.7558	927.0627	-270.3618	314.2959	967.6095	-62.3691	290.0374	942.8132	-385.7507	138.3856	1298.8806	-246.6662	151.2544	1201.9493	-272.9053	142.6591	1340.3827	-379.0688
159	0.79	234.4675	1374.1859	-198.4123	371.0452	1323.3378	-217.8141	240.8507	1327.8634	-59.75	275.6746	1333.2283	-24.4887	294.7342	1366.588	-48.0706	194.4436	1355.214	-313.2416	215.9196	1374.7369	-355.5544	246.5355	1401.5829	-320.0292	429.5844	1126.9683	-235.4472	194.9023	1198.5015	-202.9906	347.4684	1150.6459	-3.7571	274.0168	1008.6466	-19.4373	295.155	1022.3477	43.1456	352.9165	868.4188	66.7038	400.9115	805.1276	45.2734	355.9373	799.4786	69.4536	426.0546	723.9611	59.2217	379.127	719.9952	78.7737	265.9185	1347.4009	-507.8549	221.3981	1258.4813	-615.7722	189.7889	1299.749	-622.825	162.554	1312.6974	-778.5098	167.5959	1324.7751	-855.1537	161.4446	1282.0176	-854.2832	149.6672	1325.7982	-931.5803	151.3268	1282.1278	-932.754	389.9679	903.8184	-98.2699	199.0801	932.7733	-168.5025	375.486	890.2994	-354.4131	193.7565	927.0726	-270.3607	314.2838	967.5925	-62.358	289.9728	942.8912	-385.7682	138.4392	1298.8975	-246.6503	151.2785	1201.9802	-272.8593	142.6831	1340.3801	-379.0616
160	0.795	234.5178	1374.1674	-198.4086	371.0622	1323.3189	-217.8014	240.8739	1327.8835	-59.7025	275.6325	1333.2154	-24.411	294.8904	1366.5999	-48.1282	194.495	1355.3091	-313.2016	215.9793	1374.7639	-355.5335	246.573	1401.5787	-320.0169	429.6319	1126.9541	-235.4176	194.9219	1198.5011	-202.9644	347.4669	1150.6543	-3.7113	274.0173	1008.6445	-19.3748	295.1758	1022.3257	43.1706	352.9538	868.4095	66.7672	400.9598	805.1039	45.3342	355.9422	799.4638	69.5174	426.1392	723.8853	59.2416	379.1023	720.0583	78.8003	265.9271	1347.42	-507.7941	221.4996	1258.4542	-615.7306	189.8709	1299.7203	-622.7846	162.6412	1312.6564	-778.4935	167.6911	1324.7203	-855.1276	161.5397	1281.9562	-854.2652	149.736	1325.7288	-931.5527	151.4047	1282.0586	-932.7399	389.9932	903.8085	-98.2608	199.1039	932.7557	-168.5044	375.4849	890.3119	-354.4272	193.7555	927.0664	-270.3592	314.2977	967.619	-62.3288	290.0864	942.8108	-385.6836	138.7189	1298.9423	-246.8921	151.2869	1202.02	-272.8263	142.7471	1340.4067	-379.0333
161	0.8	234.5287	1374.1783	-198.3863	371.0747	1323.3497	-217.7412	240.8958	1327.8355	-59.6698	275.716	1333.194	-24.3928	294.8971	1366.6158	-48.0906	194.5157	1355.2311	-313.1848	216.0386	1374.7385	-355.5359	246.5996	1401.5929	-319.9709	429.6809	1126.9733	-235.4136	194.9599	1198.522	-202.9495	347.4747	1150.6586	-3.6776	274.0336	1008.6321	-19.324	295.1667	1022.3169	43.2214	352.9692	868.4235	66.8062	400.958	805.1308	45.3843	355.984	799.4356	69.5675	426.1322	723.8725	59.2844	379.1521	719.9414	78.8451	265.9897	1347.4213	-507.7955	221.5857	1258.4448	-615.7031	189.9702	1299.6785	-622.7497	162.7106	1312.5662	-778.4577	167.7695	1324.6553	-855.0913	161.5892	1281.87	-854.2089	149.8094	1325.6564	-931.5398	151.4749	1281.9811	-932.7219	390.0141	903.8591	-98.2422	199.0914	932.7584	-168.4778	375.4857	890.2976	-354.3759	193.7648	927.0617	-270.3534	314.2874	967.6096	-62.3352	290.0749	942.7894	-385.6745	138.7358	1298.9562	-246.8695	151.2948	1202.0055	-272.8355	142.8024	1340.4288	-379.0473
